<svg xmlns="http://www.w3.org/2000/svg" viewBox="0 0 519.6 600.0" width="519.6" height="600.0">
  <defs><linearGradient id="navy" x1="0" y1="0" x2="0" y2="1">
    <stop offset="0" stop-color="#283A57"/><stop offset="1" stop-color="#18212F"/></linearGradient></defs>
  <polygon points="259.80,3.00 517.01,151.50 517.01,448.50 259.80,597.00 2.59,448.50 2.59,151.50" fill="#2A9D8F" stroke="#15463F" stroke-width="3"/>
  <polygon points="259.80,23.00 499.69,161.50 499.69,438.50 259.80,577.00 19.91,438.50 19.91,161.50" fill="url(#navy)"/>
  <polygon points="259.80,31.00 492.76,165.50 492.76,434.50 259.80,569.00 26.84,434.50 26.84,165.50" fill="none" stroke="#FFFFFF" stroke-opacity="0.06" stroke-width="2"/>
  <path d="M217.68,380.16 Q259.80,395.60 301.92,380.16" fill="none" stroke="#54C7B6" stroke-width="8" stroke-linecap="round"/><polygon points="199.84,373.62 220.95,371.24 214.41,389.08" fill="#54C7B6"/><polygon points="319.76,373.62 305.19,389.08 298.65,371.24" fill="#54C7B6"/><path d="M145.07,254.40 Q152.76,210.20 187.19,181.44" fill="none" stroke="#54C7B6" stroke-width="8" stroke-linecap="round"/><polygon points="141.81,273.12 135.71,252.77 154.43,256.03" fill="#54C7B6"/><polygon points="201.78,169.26 193.28,188.73 181.10,174.15" fill="#54C7B6"/><path d="M374.53,254.40 Q366.84,210.20 332.41,181.44" fill="none" stroke="#54C7B6" stroke-width="8" stroke-linecap="round"/><polygon points="377.79,273.12 365.17,256.03 383.89,252.77" fill="#54C7B6"/><polygon points="317.82,169.26 338.50,174.15 326.32,188.73" fill="#54C7B6"/>
  <circle cx="131.9" cy="352.6" r="62" fill="#0A0E16" opacity="0.18"/><circle cx="128.9" cy="347.6" r="62" fill="#F4EFE6" stroke="#DBD1C0" stroke-width="1.8"/><g><path d="M98.9,328.1 L98.9,367.1 A30.0,10.5 0 0 0 158.9,367.1 L158.9,328.1 Z" fill="#243150"/><ellipse cx="128.9" cy="328.1" rx="30.0" ry="10.5" fill="#3C4E72"/><path d="M98.9,346.1 A30.0,10.5 0 0 0 158.9,346.1" fill="none" stroke="#54C7B6" stroke-width="5.1" stroke-linecap="round"/><path d="M98.9,361.1 A30.0,10.5 0 0 0 158.9,361.1" fill="none" stroke="#54C7B6" stroke-width="5.1" stroke-linecap="round" opacity="0.7"/></g>
  <circle cx="262.8" cy="125.8" r="62" fill="#0A0E16" opacity="0.18"/><circle cx="259.8" cy="120.8" r="62" fill="#F4EFE6" stroke="#DBD1C0" stroke-width="1.8"/><g><rect x="234.3" y="86.3" width="51.0" height="69.0" rx="7.5" fill="#FFFFFF" stroke="#243150" stroke-width="3.9"/><rect x="243.3" y="93.8" width="30.0" height="7.5" rx="3.8" fill="#243150"/><circle cx="246.3" cy="104.3" r="3.9" fill="#54C7B6"/><rect x="255.3" y="100.6" width="19.5" height="6.9" rx="3.0" fill="#5A6680"/><path d="M243.3,122.3 l5.2,6.0 l10.5,-12.8" fill="none" stroke="#1FB57D" stroke-width="5.1" stroke-linecap="round" stroke-linejoin="round"/><rect x="262.8" y="118.6" width="13.5" height="6.9" rx="3.0" fill="#5A6680"/><circle cx="246.3" cy="140.3" r="3.9" fill="#54C7B6"/><rect x="255.3" y="136.6" width="19.5" height="6.9" rx="3.0" fill="#5A6680"/></g>
  <circle cx="393.7" cy="352.6" r="62" fill="#0A0E16" opacity="0.18"/><circle cx="390.7" cy="347.6" r="62" fill="#F4EFE6" stroke="#DBD1C0" stroke-width="1.8"/><g><rect x="357.7" y="319.1" width="66.0" height="57.0" rx="7.5" fill="#FFFFFF" stroke="#243150" stroke-width="3.9"/><rect x="357.7" y="319.1" width="66.0" height="18.0" rx="7.5" fill="#243150"/><path d="M357.7,337.1 h66.0" stroke="#243150" stroke-width="3.6"/><path d="M390.7,337.1 v39.0" stroke="#5A6680" stroke-width="2.7"/><path d="M357.7,353.6 h66.0" stroke="#5A6680" stroke-width="2.7"/><path d="M357.7,364.8 h66.0" stroke="#5A6680" stroke-width="2.7" opacity="0.6"/></g>
  <path d="M105.88,445.63L105.88,451.74Q103.57,450.66 101.40,450.12Q99.23,449.58 97.32,449.58Q95.26,449.58 94.26,450.16Q93.26,450.73 93.26,451.92Q93.26,452.89 94.01,453.40Q94.76,453.91 96.74,454.17L98.00,454.37Q103.57,455.15 105.49,456.95Q107.41,458.74 107.41,462.59Q107.41,466.61 104.73,468.63Q102.07,470.65 96.76,470.65Q94.52,470.65 92.13,470.26Q89.73,469.86 87.22,469.08L87.22,462.97Q89.37,464.13 91.65,464.72Q93.93,465.31 96.27,465.31Q98.38,465.31 99.46,464.66Q100.53,464.01 100.53,462.72Q100.53,461.64 99.79,461.12Q99.05,460.59 96.85,460.30L95.57,460.12Q90.75,459.44 88.80,457.62Q86.86,455.80 86.86,452.10Q86.86,448.10 89.32,446.17Q91.79,444.24 96.90,444.24Q98.90,444.24 101.10,444.58Q103.29,444.91 105.88,445.63ZM135.60,454.68L135.60,470.00L128.32,470.00L128.32,467.51L128.32,458.32Q128.32,455.02 128.19,453.79Q128.05,452.55 127.73,451.97Q127.31,451.18 126.58,450.74Q125.85,450.30 124.93,450.30Q122.66,450.30 121.36,452.25Q120.08,454.19 120.08,457.62L120.08,470.00L112.84,470.00L112.84,435.05L120.08,435.05L120.08,448.52Q121.72,446.32 123.56,445.28Q125.40,444.24 127.62,444.24Q131.53,444.24 133.56,446.91Q135.60,449.58 135.60,454.68ZM142.31,444.84L149.55,444.84L149.55,470.00L142.31,470.00L142.31,444.84ZM142.31,435.05L149.55,435.05L149.55,441.61L142.31,441.61L142.31,435.05ZM179.24,454.68L179.24,470.00L171.96,470.00L171.96,467.51L171.96,458.28Q171.96,455.02 171.83,453.79Q171.69,452.55 171.37,451.97Q170.95,451.18 170.22,450.74Q169.49,450.30 168.57,450.30Q166.30,450.30 165.01,452.25Q163.72,454.19 163.72,457.62L163.72,470.00L156.48,470.00L156.48,444.84L163.72,444.84L163.72,448.52Q165.36,446.32 167.20,445.28Q169.04,444.24 171.27,444.24Q175.17,444.24 177.20,446.91Q179.24,449.58 179.24,454.68ZM182.97,444.84L190.22,444.84L196.31,461.91L201.48,444.84L208.71,444.84L199.18,472.38Q197.75,476.58 195.83,478.25Q193.93,479.93 190.80,479.93L186.60,479.93L186.60,474.65L188.88,474.65Q190.72,474.65 191.56,474.00Q192.40,473.35 192.87,471.66L193.07,470.96L182.97,444.84Z" fill="#F5F0E7"/><path d="M227.81,435.05L227.81,440.33L223.82,440.33Q222.29,440.33 221.68,440.95Q221.08,441.57 221.08,443.09L221.08,444.84L227.25,444.84L227.25,450.59L221.08,450.59L221.08,470.00L213.82,470.00L213.82,450.59L210.22,450.59L210.22,444.84L213.82,444.84L213.82,443.09Q213.82,438.98 215.88,437.02Q217.95,435.05 222.29,435.05L227.81,435.05ZM241.67,449.99Q239.27,449.99 238.01,451.91Q236.75,453.83 236.75,457.44Q236.75,461.06 238.01,462.99Q239.27,464.90 241.67,464.90Q244.06,464.90 245.30,462.99Q246.54,461.06 246.54,457.44Q246.54,453.83 245.30,451.91Q244.06,449.99 241.67,449.99ZM241.67,444.24Q247.54,444.24 250.81,447.75Q254.09,451.25 254.09,457.44Q254.09,463.65 250.81,467.15Q247.54,470.65 241.67,470.65Q235.83,470.65 232.52,467.15Q229.21,463.65 229.21,457.44Q229.21,451.25 232.52,447.75Q235.83,444.24 241.67,444.24ZM276.17,451.69Q275.21,451.20 274.27,450.97Q273.34,450.73 272.38,450.73Q269.59,450.73 268.09,452.72Q266.58,454.70 266.58,458.41L266.58,470.00L259.35,470.00L259.35,444.84L266.58,444.84L266.58,448.98Q267.97,446.50 269.78,445.38Q271.59,444.24 274.13,444.24Q274.49,444.24 274.91,444.28Q275.34,444.30 276.15,444.42L276.17,451.69ZM300.74,449.02Q302.12,446.68 304.00,445.46Q305.89,444.24 308.15,444.24Q312.06,444.24 314.11,446.91Q316.15,449.58 316.15,454.68L316.15,470.00L308.87,470.00L308.87,456.88Q308.90,456.59 308.91,456.28Q308.92,455.96 308.92,455.38Q308.92,452.71 308.21,451.51Q307.51,450.30 305.91,450.30Q303.87,450.30 302.74,452.19Q301.62,454.07 301.58,457.64L301.58,470.00L294.30,470.00L294.30,456.88Q294.30,452.71 293.64,451.51Q293.00,450.30 291.34,450.30Q289.26,450.30 288.13,452.20Q287.00,454.09 287.00,457.62L287.00,470.00L279.72,470.00L279.72,444.84L287.00,444.84L287.00,448.52Q288.32,446.40 290.05,445.32Q291.78,444.24 293.87,444.24Q296.21,444.24 298.01,445.50Q299.82,446.76 300.74,449.02Z" fill="#5CC9B8"/><path d="M330.79,437.70L330.79,444.84L338.25,444.84L338.25,450.59L330.79,450.59L330.79,461.26Q330.79,463.01 331.41,463.63Q332.03,464.25 333.90,464.25L337.62,464.25L337.62,470.00L331.43,470.00Q327.14,470.00 325.34,468.02Q323.54,466.03 323.54,461.26L323.54,450.59L319.95,450.59L319.95,444.84L323.54,444.84L323.54,437.70L330.79,437.70ZM353.44,449.99Q351.04,449.99 349.78,451.91Q348.52,453.83 348.52,457.44Q348.52,461.06 349.78,462.99Q351.04,464.90 353.44,464.90Q355.82,464.90 357.07,462.99Q358.31,461.06 358.31,457.44Q358.31,453.83 357.07,451.91Q355.82,449.99 353.44,449.99ZM353.44,444.24Q359.30,444.24 362.58,447.75Q365.86,451.25 365.86,457.44Q365.86,463.65 362.58,467.15Q359.30,470.65 353.44,470.65Q347.60,470.65 344.29,467.15Q340.97,463.65 340.97,457.44Q340.97,451.25 344.29,447.75Q347.60,444.24 353.44,444.24ZM381.87,449.99Q379.47,449.99 378.21,451.91Q376.96,453.83 376.96,457.44Q376.96,461.06 378.21,462.99Q379.47,464.90 381.87,464.90Q384.26,464.90 385.50,462.99Q386.74,461.06 386.74,457.44Q386.74,453.83 385.50,451.91Q384.26,449.99 381.87,449.99ZM381.87,444.24Q387.74,444.24 391.01,447.75Q394.29,451.25 394.29,457.44Q394.29,463.65 391.01,467.15Q387.74,470.65 381.87,470.65Q376.04,470.65 372.72,467.15Q369.41,463.65 369.41,457.44Q369.41,451.25 372.72,447.75Q376.04,444.24 381.87,444.24ZM399.55,435.05L406.79,435.05L406.79,470.00L399.55,470.00L399.55,435.05ZM431.40,445.63L431.40,451.74Q429.09,450.66 426.92,450.12Q424.75,449.58 422.84,449.58Q420.78,449.58 419.78,450.16Q418.78,450.73 418.78,451.92Q418.78,452.89 419.53,453.40Q420.28,453.91 422.26,454.17L423.52,454.37Q429.09,455.15 431.01,456.95Q432.93,458.74 432.93,462.59Q432.93,466.61 430.25,468.63Q427.58,470.65 422.28,470.65Q420.04,470.65 417.64,470.26Q415.25,469.86 412.74,469.08L412.74,462.97Q414.89,464.13 417.17,464.72Q419.45,465.31 421.78,465.31Q423.90,465.31 424.98,464.66Q426.05,464.01 426.05,462.72Q426.05,461.64 425.31,461.12Q424.57,460.59 422.37,460.30L421.09,460.12Q416.26,459.44 414.32,457.62Q412.38,455.80 412.38,452.10Q412.38,448.10 414.84,446.17Q417.31,444.24 422.42,444.24Q424.42,444.24 426.61,444.58Q428.81,444.91 431.40,445.63Z" fill="#F5F0E7"/>
</svg>